#N canvas 791 150 879 830 12;
#X obj 26 130 unpack f f f f f;
#X obj 230 360 r scaleUpdate;
#X obj 208 258 f;
#X obj 208 222 sel 1;
#X obj 26 87 inlet;
#X obj 154 130 5bit-dac;
#X obj 208 391 scaleQuantize;
#X obj 208 285 expr $f1 * $f2 + $f3;
#X obj 166 101 inlet;
#X obj 323 95 inlet;
#X obj 266 685 pack f f;
#X obj 266 534 until;
#X obj 266 558 f;
#X obj 323 542 + 1;
#X obj 319 659 +;
#X obj 266 711 outlet;
#X obj 508 95 inlet;
#X obj 266 600 t f f;
#X obj 33 666 pack f f;
#X obj 33 690 outlet;
#X obj 34 517 until;
#X obj 34 453 t b f;
#X obj 33 575 f;
#X obj 65 547 + 1;
#X obj 33 599 + \$1;
#X text 235 255 0-1 note value;
#X text 146 67 note range multiplier;
#X text 323 67 note offset;
#X obj 323 566 mod \$2;
#X obj 266 502 f \$2;
#X text 494 70 detune in cents;
#X obj 508 119 * 0.01;
#X obj 65 575 mod \$2;
#X obj 34 477 \$2;
#X text 13 712 voice num \, note on/off;
#X text 261 736 voice num \, midi note #;
#X text 30 17 args: voice offset \, # voices to control;
#X obj 266 460 t b b f;
#X text 23 61 row of cells;
#X obj 266 647 + \$1;
#X text 573 616 detuner (works best with odd # voices);
#X obj 441 531 t b f;
#X obj 329 618 expr ($f1 - (\$2 / 2)) * ($f2);
#X obj 120 575 r vel-mod;
#X obj 87 601 expr $f1 * (1 - $f2);
#X obj 131 403 loadbang;
#X obj 131 430 \$2;
#X obj 86 637 *;
#X obj 131 508 dbtorms;
#X floatatom 158 532 5 0 0 0 - - -;
#X obj 105 398 bng 15 250 50 0 empty empty empty 17 7 0 10 -262144
-1 -1;
#X obj 131 478 + 100;
#X obj 131 454 expr ($f1-1) * -2;
#X text 13 341 every additional voice = -2 dB;
#X floatatom 133 671 5 0 0 0 - - -;
#X obj 472 561 / \$2;
#X obj 26 167 !=;
#X connect 0 0 56 0;
#X connect 0 1 56 1;
#X connect 1 0 6 1;
#X connect 2 0 7 0;
#X connect 3 0 2 0;
#X connect 4 0 0 0;
#X connect 4 0 5 0;
#X connect 5 0 2 1;
#X connect 6 0 37 0;
#X connect 7 0 6 0;
#X connect 8 0 7 1;
#X connect 9 0 7 2;
#X connect 10 0 15 0;
#X connect 11 0 12 0;
#X connect 12 0 13 0;
#X connect 12 0 17 0;
#X connect 13 0 28 0;
#X connect 14 0 10 1;
#X connect 16 0 31 0;
#X connect 17 0 39 0;
#X connect 17 1 42 0;
#X connect 18 0 19 0;
#X connect 20 0 22 0;
#X connect 21 0 33 0;
#X connect 21 1 44 0;
#X connect 22 0 23 0;
#X connect 22 0 24 0;
#X connect 23 0 32 0;
#X connect 24 0 18 0;
#X connect 28 0 12 1;
#X connect 29 0 11 0;
#X connect 31 0 41 0;
#X connect 32 0 22 1;
#X connect 33 0 20 0;
#X connect 37 0 29 0;
#X connect 37 1 14 0;
#X connect 37 2 14 1;
#X connect 39 0 10 0;
#X connect 41 0 42 0;
#X connect 41 1 55 0;
#X connect 42 0 14 0;
#X connect 43 0 44 1;
#X connect 44 0 47 0;
#X connect 45 0 46 0;
#X connect 46 0 52 0;
#X connect 47 0 18 1;
#X connect 48 0 49 0;
#X connect 48 0 47 1;
#X connect 50 0 46 0;
#X connect 51 0 48 0;
#X connect 52 0 51 0;
#X connect 55 0 42 1;
#X connect 56 0 21 0;
#X connect 56 0 3 0;
