#N canvas 99 153 1405 630 10;
#X obj 57 97 inlet;
#X text 297 11 2-dimensional rule processing.;
#X text 296 31 Considers neighborhood of 5;
#X text 639 538 this gets the next state for the given cell.;
#X text 475 477 converts neighborhood into 5-bit state;
#X obj 476 491 expr 16*$f1 + 8*$f2 + 4*$f3 + 2*$f4 + 1*$f5;
#X obj 756 85 bng 15 250 50 0 empty empty empty 17 7 0 10 -262144 -1
-1;
#X obj 1185 60 r I;
#X obj 1228 60 r J;
#X obj 56 471 f;
#X text 938 37 \$1 xPos \, \$2 yPos;
#X floatatom 134 100 5 0 0 0 - - -;
#X obj 57 124 route bang;
#X obj 97 98 bng 15 250 50 0 empty empty empty 17 7 0 10 -262144 -1
-1;
#X text 57 76 bang for next state;
#X text 945 538 WILL NEED TO BE UNIQUE ARRAY \, \$0_ruleSequence \,
LATER;
#X obj 456 538 array get ruleSequence 0 1;
#X obj 56 496 array set cells;
#X obj 789 54 r loads;
#X obj 286 321 array get cells;
#X text 278 64 need to get [i \, j+1] \, [i+1 \, j] \, [i \, j-1] \,
[i-1 \, j];
#X text 314 196 [i \, j+1];
#X floatatom 349 275 5 0 0 0 - - -;
#X obj 301 251 expr \$1 + ((\$2 + 1) % $f2) * $f1;
#X obj 286 300 f;
#X msg 321 300 1;
#X obj 286 278 t b b;
#X floatatom 286 342 5 0 0 0 - - -;
#X text 621 250 [i+1 \, j];
#X obj 595 291 expr ((\$1 + 1) % $f1) + \$2 * $f1;
#X text 900 206 [i \, j-1];
#X obj 905 280 expr \$1 + $f2 * $f1;
#X obj 956 206 expr if(\$2-1 >= 0 \, \$2-1 \, $f1-1);
#X text 1227 213 [i-1 \, j];
#X obj 1186 249 expr if(\$1-1 >= 0 \, \$1-1 \, $f1-1);
#X obj 1186 321 expr $f1 + \$2 * $f2;
#X obj 83 371 bng 15 250 50 0 empty empty empty 17 7 0 10 -262144 -1
-1;
#X obj 272 156 r \$0-queryNeighbors;
#X obj 83 397 s \$0-queryNeighbors;
#X floatatom 638 318 5 0 0 0 - - -;
#X floatatom 960 308 5 0 0 0 - - -;
#X floatatom 1237 346 5 0 0 0 - - -;
#X obj 580 361 array get cells;
#X obj 580 340 f;
#X msg 615 340 1;
#X obj 580 318 t b b;
#X floatatom 580 382 5 0 0 0 - - -;
#X obj 1159 386 array get cells;
#X obj 1159 365 f;
#X msg 1194 365 1;
#X obj 1159 343 t b b;
#X floatatom 1159 407 5 0 0 0 - - -;
#X obj 890 349 array get cells;
#X obj 890 328 f;
#X msg 925 328 1;
#X obj 890 306 t b b;
#X floatatom 890 370 5 0 0 0 - - -;
#X obj 476 444 pack f f f f f;
#X obj 138 289 f;
#X obj 272 177 t b b b b b;
#X obj 138 313 array get cells;
#X msg 173 292 1;
#X obj 139 262 t b b;
#X floatatom 138 344 5 0 0 0 - - -;
#X text 1140 38 x dimensions \, y dimensions;
#X text 121 125 WILL NEED unique rule table index later \, this outlet
is reserved for that;
#X floatatom 456 564 5 0 0 0 - - -;
#X obj 99 48 r updateState;
#X obj 1299 274 r J;
#X obj 1186 228 r I;
#X obj 956 183 r J;
#X obj 878 230 r I;
#X obj 595 268 r I;
#X obj 489 229 r J;
#X obj 329 220 r I;
#X obj 161 234 expr \$1 + \$2 * $f1;
#X obj 161 210 r J;
#X text 148 188 [i \, j];
#X floatatom 190 262 5 0 0 0 - - -;
#X obj 375 222 bng 15 250 50 0 empty empty empty 17 7 0 10 -262144
-1 -1;
#X obj 789 104 t b b b b b;
#X floatatom 476 512 5 0 0 0 - - -;
#X floatatom 432 518 5 0 0 0 - - -;
#X obj 1336 216 bng 15 250 50 0 empty empty empty 17 7 0 10 -262144
-1 -1;
#X obj 1285 295 f;
#X obj 1186 270 t f b;
#X obj 956 227 t b f;
#X obj 905 255 f;
#X obj 789 75 del 1000;
#X obj 47 185 t b b;
#X connect 0 0 12 0;
#X connect 5 0 81 0;
#X connect 5 0 16 0;
#X connect 6 0 80 0;
#X connect 9 0 17 0;
#X connect 11 0 12 0;
#X connect 12 0 89 0;
#X connect 13 0 12 0;
#X connect 16 0 66 0;
#X connect 16 0 9 1;
#X connect 18 0 88 0;
#X connect 19 0 27 0;
#X connect 19 0 57 1;
#X connect 23 0 22 0;
#X connect 23 0 24 1;
#X connect 24 0 19 0;
#X connect 25 0 19 1;
#X connect 26 0 24 0;
#X connect 26 1 25 0;
#X connect 29 0 39 0;
#X connect 29 0 43 1;
#X connect 31 0 40 0;
#X connect 31 0 53 1;
#X connect 32 0 86 0;
#X connect 34 0 85 0;
#X connect 35 0 41 0;
#X connect 35 0 48 1;
#X connect 36 0 38 0;
#X connect 37 0 59 0;
#X connect 42 0 46 0;
#X connect 42 0 57 2;
#X connect 43 0 42 0;
#X connect 44 0 42 1;
#X connect 45 0 43 0;
#X connect 45 1 44 0;
#X connect 47 0 51 0;
#X connect 47 0 57 4;
#X connect 48 0 47 0;
#X connect 49 0 47 1;
#X connect 50 0 48 0;
#X connect 50 1 49 0;
#X connect 52 0 56 0;
#X connect 52 0 57 3;
#X connect 53 0 52 0;
#X connect 54 0 52 1;
#X connect 55 0 53 0;
#X connect 55 1 54 0;
#X connect 57 0 5 0;
#X connect 58 0 60 0;
#X connect 59 0 62 0;
#X connect 59 1 26 0;
#X connect 59 2 45 0;
#X connect 59 3 55 0;
#X connect 59 4 50 0;
#X connect 60 0 63 0;
#X connect 60 0 57 0;
#X connect 61 0 60 1;
#X connect 62 0 58 0;
#X connect 62 1 61 0;
#X connect 67 0 13 0;
#X connect 68 0 84 1;
#X connect 69 0 34 0;
#X connect 70 0 32 0;
#X connect 71 0 87 1;
#X connect 72 0 29 0;
#X connect 73 0 23 1;
#X connect 74 0 23 0;
#X connect 75 0 17 1;
#X connect 75 0 58 1;
#X connect 75 0 78 0;
#X connect 76 0 75 0;
#X connect 79 0 23 0;
#X connect 80 0 75 0;
#X connect 80 1 23 0;
#X connect 80 2 29 0;
#X connect 80 3 32 0;
#X connect 80 4 34 0;
#X connect 82 0 16 0;
#X connect 83 0 34 0;
#X connect 84 0 35 1;
#X connect 85 0 35 0;
#X connect 85 1 84 0;
#X connect 86 0 87 0;
#X connect 86 1 31 1;
#X connect 87 0 31 0;
#X connect 88 0 80 0;
#X connect 89 0 9 0;
#X connect 89 1 38 0;
