#N canvas 652 23 702 828 10;
#X obj 35 17 inlet;
#X obj 35 90 t f f;
#X obj 73 116 % 2;
#X obj 35 116 / 2;
#X obj 35 137 i;
#X obj 35 180 t f f;
#X obj 73 206 % 2;
#X obj 35 206 / 2;
#X obj 35 227 i;
#X obj 35 40 max 0;
#X floatatom 106 11 5 0 0 0 - - -;
#X obj 35 260 t f f;
#X obj 73 286 % 2;
#X obj 35 286 / 2;
#X obj 35 307 i;
#X obj 35 340 t f f;
#X obj 73 366 % 2;
#X obj 35 366 / 2;
#X obj 35 387 i;
#X obj 35 420 t f f;
#X obj 73 446 % 2;
#X obj 35 446 / 2;
#X obj 35 467 i;
#X obj 35 500 t f f;
#X obj 73 526 % 2;
#X obj 35 526 / 2;
#X obj 35 547 i;
#X obj 35 580 t f f;
#X obj 73 606 % 2;
#X obj 35 606 / 2;
#X obj 35 627 i;
#X obj 73 666 % 2;
#X obj 235 791 outlet;
#X obj 35 61 min 4.29497e+09;
#X obj 205 90 t f f;
#X obj 243 116 % 2;
#X obj 205 116 / 2;
#X obj 205 137 i;
#X obj 205 180 t f f;
#X obj 243 206 % 2;
#X obj 205 206 / 2;
#X obj 205 227 i;
#X obj 205 260 t f f;
#X obj 243 286 % 2;
#X obj 205 286 / 2;
#X obj 205 307 i;
#X obj 205 340 t f f;
#X obj 243 366 % 2;
#X obj 205 366 / 2;
#X obj 205 387 i;
#X obj 205 420 t f f;
#X obj 243 446 % 2;
#X obj 205 446 / 2;
#X obj 205 467 i;
#X obj 205 500 t f f;
#X obj 243 526 % 2;
#X obj 205 526 / 2;
#X obj 205 547 i;
#X obj 205 580 t f f;
#X obj 243 606 % 2;
#X obj 205 606 / 2;
#X obj 205 627 i;
#X obj 243 666 % 2;
#X obj 385 90 t f f;
#X obj 423 116 % 2;
#X obj 385 116 / 2;
#X obj 385 137 i;
#X obj 385 180 t f f;
#X obj 423 206 % 2;
#X obj 385 206 / 2;
#X obj 385 227 i;
#X obj 385 260 t f f;
#X obj 423 286 % 2;
#X obj 385 286 / 2;
#X obj 385 307 i;
#X obj 385 340 t f f;
#X obj 423 366 % 2;
#X obj 385 366 / 2;
#X obj 385 387 i;
#X obj 385 420 t f f;
#X obj 423 446 % 2;
#X obj 385 446 / 2;
#X obj 385 467 i;
#X obj 385 500 t f f;
#X obj 423 526 % 2;
#X obj 385 526 / 2;
#X obj 385 547 i;
#X obj 385 580 t f f;
#X obj 423 606 % 2;
#X obj 385 606 / 2;
#X obj 385 627 i;
#X obj 423 666 % 2;
#X obj 565 90 t f f;
#X obj 603 116 % 2;
#X obj 565 116 / 2;
#X obj 565 137 i;
#X obj 565 180 t f f;
#X obj 603 206 % 2;
#X obj 565 206 / 2;
#X obj 565 227 i;
#X obj 565 260 t f f;
#X obj 603 286 % 2;
#X obj 565 286 / 2;
#X obj 565 307 i;
#X obj 565 340 t f f;
#X obj 603 366 % 2;
#X obj 565 366 / 2;
#X obj 565 387 i;
#X obj 565 420 t f f;
#X obj 603 446 % 2;
#X obj 565 446 / 2;
#X obj 565 467 i;
#X obj 565 500 t f f;
#X obj 603 526 % 2;
#X obj 565 526 / 2;
#X obj 565 547 i;
#X obj 565 580 t f f;
#X obj 603 606 % 2;
#X obj 565 606 / 2;
#X obj 565 627 i;
#X obj 603 666 % 2;
#X obj 235 755 pack f f f f f f f f f f f f f f f f f f f f f f f f
f f f f f f f f;
#X connect 0 0 9 0;
#X connect 1 0 3 0;
#X connect 1 1 2 0;
#X connect 2 0 121 31;
#X connect 3 0 4 0;
#X connect 4 0 5 0;
#X connect 5 0 7 0;
#X connect 5 1 6 0;
#X connect 6 0 121 30;
#X connect 7 0 8 0;
#X connect 8 0 11 0;
#X connect 9 0 33 0;
#X connect 10 0 9 0;
#X connect 11 0 13 0;
#X connect 11 1 12 0;
#X connect 12 0 121 29;
#X connect 13 0 14 0;
#X connect 14 0 15 0;
#X connect 15 0 17 0;
#X connect 15 1 16 0;
#X connect 16 0 121 28;
#X connect 17 0 18 0;
#X connect 18 0 19 0;
#X connect 19 0 21 0;
#X connect 19 1 20 0;
#X connect 20 0 121 27;
#X connect 21 0 22 0;
#X connect 22 0 23 0;
#X connect 23 0 25 0;
#X connect 23 1 24 0;
#X connect 24 0 121 26;
#X connect 25 0 26 0;
#X connect 26 0 27 0;
#X connect 27 0 29 0;
#X connect 27 1 28 0;
#X connect 28 0 121 25;
#X connect 29 0 30 0;
#X connect 30 0 31 0;
#X connect 30 0 34 0;
#X connect 31 0 121 24;
#X connect 33 0 1 0;
#X connect 34 0 36 0;
#X connect 34 1 35 0;
#X connect 35 0 121 23;
#X connect 36 0 37 0;
#X connect 37 0 38 0;
#X connect 38 0 40 0;
#X connect 38 1 39 0;
#X connect 39 0 121 22;
#X connect 40 0 41 0;
#X connect 41 0 42 0;
#X connect 42 0 44 0;
#X connect 42 1 43 0;
#X connect 43 0 121 21;
#X connect 44 0 45 0;
#X connect 45 0 46 0;
#X connect 46 0 48 0;
#X connect 46 1 47 0;
#X connect 47 0 121 20;
#X connect 48 0 49 0;
#X connect 49 0 50 0;
#X connect 50 0 52 0;
#X connect 50 1 51 0;
#X connect 51 0 121 19;
#X connect 52 0 53 0;
#X connect 53 0 54 0;
#X connect 54 0 56 0;
#X connect 54 1 55 0;
#X connect 55 0 121 18;
#X connect 56 0 57 0;
#X connect 57 0 58 0;
#X connect 58 0 60 0;
#X connect 58 1 59 0;
#X connect 59 0 121 17;
#X connect 60 0 61 0;
#X connect 61 0 62 0;
#X connect 61 0 63 0;
#X connect 62 0 121 16;
#X connect 63 0 65 0;
#X connect 63 1 64 0;
#X connect 64 0 121 15;
#X connect 65 0 66 0;
#X connect 66 0 67 0;
#X connect 67 0 69 0;
#X connect 67 1 68 0;
#X connect 68 0 121 14;
#X connect 69 0 70 0;
#X connect 70 0 71 0;
#X connect 71 0 73 0;
#X connect 71 1 72 0;
#X connect 72 0 121 13;
#X connect 73 0 74 0;
#X connect 74 0 75 0;
#X connect 75 0 77 0;
#X connect 75 1 76 0;
#X connect 76 0 121 12;
#X connect 77 0 78 0;
#X connect 78 0 79 0;
#X connect 79 0 81 0;
#X connect 79 1 80 0;
#X connect 80 0 121 11;
#X connect 81 0 82 0;
#X connect 82 0 83 0;
#X connect 83 0 85 0;
#X connect 83 1 84 0;
#X connect 84 0 121 10;
#X connect 85 0 86 0;
#X connect 86 0 87 0;
#X connect 87 0 89 0;
#X connect 87 1 88 0;
#X connect 88 0 121 9;
#X connect 89 0 90 0;
#X connect 90 0 91 0;
#X connect 90 0 92 0;
#X connect 91 0 121 8;
#X connect 92 0 94 0;
#X connect 92 1 93 0;
#X connect 93 0 121 7;
#X connect 94 0 95 0;
#X connect 95 0 96 0;
#X connect 96 0 98 0;
#X connect 96 1 97 0;
#X connect 97 0 121 6;
#X connect 98 0 99 0;
#X connect 99 0 100 0;
#X connect 100 0 102 0;
#X connect 100 1 101 0;
#X connect 101 0 121 5;
#X connect 102 0 103 0;
#X connect 103 0 104 0;
#X connect 104 0 106 0;
#X connect 104 1 105 0;
#X connect 105 0 121 4;
#X connect 106 0 107 0;
#X connect 107 0 108 0;
#X connect 108 0 110 0;
#X connect 108 1 109 0;
#X connect 109 0 121 3;
#X connect 110 0 111 0;
#X connect 111 0 112 0;
#X connect 112 0 114 0;
#X connect 112 1 113 0;
#X connect 113 0 121 2;
#X connect 114 0 115 0;
#X connect 115 0 116 0;
#X connect 116 0 118 0;
#X connect 116 1 117 0;
#X connect 117 0 121 1;
#X connect 118 0 119 0;
#X connect 119 0 120 0;
#X connect 120 0 121 0;
#X connect 121 0 32 0;
