#N canvas 80 23 450 300 12;
#X obj 1 2 hradio 15 1 0 5 empty empty empty 0 -8 0 10 -262144 -1 -1
1;
#X obj 46 39 inlet;
#X obj 25 252 outlet;
#X obj 25 86 pack f f;
#X obj 25 110 route 0 1 2 3 4;
#X obj 46 63 t b f;
#X obj 75 252 outlet;
#X obj 125 252 outlet;
#X obj 175 252 outlet;
#X obj 225 252 outlet;
#X obj 1 188 sel 0;
#X msg 33 214 0;
#X msg 83 214 0;
#X obj 51 188 sel 1;
#X msg 133 214 0;
#X obj 101 188 sel 2;
#X msg 183 214 0;
#X obj 151 188 sel 3;
#X msg 233 214 0;
#X obj 201 188 sel 4;
#X connect 0 0 3 0;
#X connect 0 0 10 0;
#X connect 0 0 13 0;
#X connect 0 0 15 0;
#X connect 0 0 17 0;
#X connect 0 0 19 0;
#X connect 1 0 5 0;
#X connect 3 0 4 0;
#X connect 4 0 2 0;
#X connect 4 1 6 0;
#X connect 4 2 7 0;
#X connect 4 3 8 0;
#X connect 4 4 9 0;
#X connect 5 0 3 0;
#X connect 5 1 3 1;
#X connect 10 1 11 0;
#X connect 11 0 2 0;
#X connect 12 0 6 0;
#X connect 13 1 12 0;
#X connect 14 0 7 0;
#X connect 15 1 14 0;
#X connect 16 0 8 0;
#X connect 17 1 16 0;
#X connect 18 0 9 0;
#X connect 19 1 18 0;
#X coords 0 -1 1 1 78 20 2 0 0;
