#N canvas 827 23 781 579 12;
#X text 372 89 discrete idx;
#X text 264 126 interp;
#X obj 59 188 +~;
#X obj 173 251 +~ 512;
#X obj 59 122 *~ 512;
#X obj 173 301 tabread4~ wave;
#X obj 59 301 tabread4~ wave;
#X obj 59 342 expr~ cos($v3 * 1.57079632679) * $v1 + sin($v3 * 1.57079632679)
* $v2;
#X text 429 302 do not smooth this!!!;
#X text 399 323 otherwise sudden 1 to 0 transition is messed up;
#X obj 59 430 outlet~;
#X obj 325 40 r numwavs;
#X obj 157 41 r tabsize;
#X text 56 11 midi note #;
#X text 252 9 wave index (0 - 1);
#X text 318 225 wrap around;
#X obj 415 154 *;
#X text 446 154 total consolidated wavetable size;
#X obj 59 400 *~;
#X obj 146 423 tabread4~ window;
#X obj 146 398 *~ 1024;
#X obj 255 40 inlet~;
#X obj 255 89 expr~ int($v1);
#X obj 236 127 -~;
#X obj 121 164 *~ 512;
#X obj 255 65 *~ 7;
#X obj 59 39 inlet~;
#X obj 173 276 expr~ if($v1 < $f2 \, $v1 \, $v1 - $f2);
#X obj 59 226 expr~ if($v1 < $f2 \, $v1 \, $v1 - $f2);
#X obj 325 65 - 1;
#X connect 2 0 3 0;
#X connect 2 0 28 0;
#X connect 3 0 27 0;
#X connect 4 0 2 0;
#X connect 5 0 7 1;
#X connect 6 0 7 0;
#X connect 7 0 18 0;
#X connect 11 0 16 1;
#X connect 11 0 29 0;
#X connect 12 0 4 1;
#X connect 12 0 3 1;
#X connect 12 0 16 0;
#X connect 12 0 24 1;
#X connect 16 0 27 1;
#X connect 16 0 28 1;
#X connect 18 0 10 0;
#X connect 19 0 18 1;
#X connect 20 0 19 0;
#X connect 21 0 25 0;
#X connect 22 0 23 1;
#X connect 22 0 24 0;
#X connect 23 0 7 2;
#X connect 24 0 2 1;
#X connect 25 0 22 0;
#X connect 25 0 23 0;
#X connect 26 0 20 0;
#X connect 26 0 4 0;
#X connect 27 0 5 0;
#X connect 28 0 6 0;
#X connect 29 0 25 1;
