#N canvas 1041 23 781 579 12;
#X text 372 89 discrete idx;
#X text 264 126 interp;
#X obj 59 188 +~;
#X obj 173 251 +~ 512;
#X obj 59 122 *~ 512;
#X obj 173 301 tabread4~ wave;
#X obj 59 301 tabread4~ wave;
#X obj 59 342 expr~ cos($v3 * 1.57079632679) * $v1 + sin($v3 * 1.57079632679)
* $v2;
#X text 429 302 do not smooth this!!!;
#X text 399 323 otherwise sudden 1 to 0 transition is messed up;
#X obj 59 540 outlet~;
#X obj 325 40 r numwavs;
#X obj 157 41 r tabsize;
#X text 252 9 wave index (0 - 1);
#X text 318 225 wrap around;
#X obj 415 154 *;
#X text 446 154 total consolidated wavetable size;
#X obj 59 400 *~;
#X obj 146 423 tabread4~ window;
#X obj 146 398 *~ 1024;
#X obj 255 40 inlet~;
#X obj 255 89 expr~ int($v1);
#X obj 236 127 -~;
#X obj 121 164 *~ 512;
#X obj 255 65 *~ 7;
#X obj 173 276 expr~ if($v1 < $f2 \, $v1 \, $v1 - $f2);
#X obj 59 226 expr~ if($v1 < $f2 \, $v1 \, $v1 - $f2);
#X obj 325 65 - 1;
#X obj 59 79 phasor~;
#X text 56 11 frequency;
#X obj 59 41 inlet;
#X obj 440 456 block~ 1024 1 16;
#N canvas 0 23 450 348 16x 0;
#X obj 37 37 inlet~;
#X obj 37 61 *~ 0.12532;
#X obj 37 85 rpole~ 0.87467;
#X obj 37 109 *~ 0.01668;
#X obj 37 133 cpole~ 0.9293 0.10812;
#X obj 37 163 cpole~ 0.9293 0.10812;
#X obj 37 187 *~ 0.125;
#X obj 37 211 rzero~ -1;
#X obj 37 235 rzero~ -1;
#X obj 37 265 rzero~ -1;
#X obj 37 289 outlet~;
#X connect 0 0 1 0;
#X connect 1 0 2 0;
#X connect 2 0 3 0;
#X connect 3 0 4 0;
#X connect 4 0 5 0;
#X connect 4 1 5 1;
#X connect 5 0 6 0;
#X connect 6 0 7 0;
#X connect 7 0 8 0;
#X connect 8 0 9 0;
#X connect 9 0 10 0;
#X restore 59 453 pd 16x;
#X obj 294 461 r oversample;
#X obj 59 495 expr~ $v1 * ($f3) + $v2 * (1 - $f3);
#X connect 2 0 3 0;
#X connect 2 0 26 0;
#X connect 3 0 25 0;
#X connect 4 0 2 0;
#X connect 5 0 7 1;
#X connect 6 0 7 0;
#X connect 7 0 17 0;
#X connect 11 0 15 1;
#X connect 11 0 27 0;
#X connect 12 0 4 1;
#X connect 12 0 3 1;
#X connect 12 0 15 0;
#X connect 12 0 23 1;
#X connect 15 0 25 1;
#X connect 15 0 26 1;
#X connect 17 0 32 0;
#X connect 17 0 34 1;
#X connect 18 0 17 1;
#X connect 19 0 18 0;
#X connect 20 0 24 0;
#X connect 21 0 22 1;
#X connect 21 0 23 0;
#X connect 22 0 7 2;
#X connect 23 0 2 1;
#X connect 24 0 21 0;
#X connect 24 0 22 0;
#X connect 25 0 5 0;
#X connect 26 0 6 0;
#X connect 27 0 24 1;
#X connect 28 0 19 0;
#X connect 28 0 4 0;
#X connect 30 0 28 0;
#X connect 32 0 34 0;
#X connect 33 0 34 2;
#X connect 34 0 10 0;
