#N canvas 0 23 450 300 10;
#X obj 97 54 inlet;
#X obj 181 49 inlet;
#X obj 278 46 inlet;
#X obj 181 94 list append;
#X obj 241 130 t l;
#X obj 278 69 t b;
#X obj 153 175 list;
#X obj 99 82 t b;
#X obj 157 199 outlet;
#X text 26 12 this is Miller's subpatch;
#X connect 0 0 7 0;
#X connect 1 0 3 0;
#X connect 2 0 5 0;
#X connect 3 0 4 0;
#X connect 3 0 6 1;
#X connect 4 0 3 1;
#X connect 5 0 3 1;
#X connect 6 0 8 0;
#X connect 7 0 6 0;
