#N canvas 119 23 855 607 10;
#X obj 191 326 *~;
#X obj 261 326 *~;
#X obj 191 350 clip~ -1 1;
#X obj 261 350 clip~ -1 1;
#X obj 191 390 dac~ 1 2;
#X obj 13 15 vsl 15 128 0 106 0 0 empty empty empty 0 -9 0 10 -262144
-1 -1 11100 1;
#X obj 33 15 vsl 15 128 0 106 0 0 empty empty empty 0 -9 0 10 -262144
-1 -1 11100 1;
#X obj 93 266 line~;
#X obj 322 266 line~;
#X msg 93 240 \$1 50;
#X msg 322 240 \$1 50;
#X obj 191 34 inlet~;
#X obj 260 34 inlet~;
#X obj 92 14 tgl 15 0 empty chans stereo -18 23 0 10 -262144 -1 -1
1 1;
#X obj 115 71 == 1;
#X obj 260 86 *~;
#X obj 346 45 loadbang;
#X msg 346 68 0;
#X obj 115 103 == 0;
#X obj 222 162 *~;
#X floatatom 308 69 5 0 0 0 - - -;
#X obj 13 165 dbtorms;
#X obj 33 185 dbtorms;
#X obj 436 33 r stereo;
#X obj 160 371 outlet~;
#X obj 270 371 outlet~;
#X obj 41 412 sel 0 1;
#X obj 92 90 tgl 15 0 empty locut loCut -12 23 0 10 -262144 -1 -1 0
1;
#X obj 269 423 sel 0 1;
#X obj 394 394 +~;
#X obj 544 394 +~;
#X obj 261 262 +~;
#X obj 544 333 hip~ 18;
#X obj 544 353 hip~ 18;
#X obj 544 373 hip~ 18;
#X obj 394 373 hip~ 18;
#X obj 394 353 hip~ 18;
#X obj 394 333 hip~ 18;
#X obj 544 289 expr~ ($f2 == 1) * $v1 \; ($f2 == 0) * $v1;
#X obj 394 289 expr~ ($f2 == 1) * $v1 \; ($f2 == 0) * $v1;
#X obj 63 121 nbx 4 12 18 1800 1 0 loCutFreq empty loCutFreq -7 20
0 10 -262144 -1 -1 18 256;
#X obj 673 366 r loCutFreq;
#X msg 251 449 \; locut label flat \; locut label_pos -6 23;
#X msg 251 499 \; locut label loCut \; locut label_pos -12 23;
#X msg 41 498 \; chans label stereo \; chans label_pos -18 23;
#X msg 41 448 \; chans label mono \; chans label_pos -6 23;
#X floatatom 110 167 5 0 0 0 - - -;
#X obj 95 215 s \$0-ctrlR;
#X obj 125 18 r \$0-ctrlR;
#X msg 125 39 set \$1;
#X obj 535 26 r master-volume;
#X connect 0 0 2 0;
#X connect 1 0 3 0;
#X connect 2 0 4 0;
#X connect 2 0 24 0;
#X connect 3 0 4 1;
#X connect 3 0 25 0;
#X connect 5 0 6 0;
#X connect 5 0 21 0;
#X connect 5 0 46 0;
#X connect 6 0 22 0;
#X connect 6 0 47 0;
#X connect 7 0 0 1;
#X connect 8 0 1 1;
#X connect 9 0 7 0;
#X connect 10 0 8 0;
#X connect 11 0 19 0;
#X connect 11 0 39 0;
#X connect 12 0 15 0;
#X connect 13 0 14 0;
#X connect 13 0 26 0;
#X connect 14 0 18 0;
#X connect 14 0 20 0;
#X connect 14 0 15 1;
#X connect 15 0 31 1;
#X connect 16 0 17 0;
#X connect 17 0 13 0;
#X connect 18 0 19 1;
#X connect 19 0 31 0;
#X connect 21 0 9 0;
#X connect 22 0 10 0;
#X connect 23 0 13 0;
#X connect 26 0 45 0;
#X connect 26 1 44 0;
#X connect 27 0 28 0;
#X connect 27 0 38 1;
#X connect 27 0 39 1;
#X connect 28 0 42 0;
#X connect 28 1 43 0;
#X connect 29 0 0 0;
#X connect 30 0 1 0;
#X connect 31 0 38 0;
#X connect 32 0 33 0;
#X connect 33 0 34 0;
#X connect 34 0 30 0;
#X connect 35 0 29 0;
#X connect 36 0 35 0;
#X connect 37 0 36 0;
#X connect 38 0 32 0;
#X connect 38 1 30 1;
#X connect 39 0 37 0;
#X connect 39 1 29 1;
#X connect 41 0 32 1;
#X connect 41 0 37 1;
#X connect 41 0 36 1;
#X connect 41 0 35 1;
#X connect 41 0 34 1;
#X connect 41 0 33 1;
#X connect 48 0 49 0;
#X connect 49 0 5 0;
#X connect 50 0 5 0;
#X coords 0 -1 1 1 100 140 2 10 10;
