#N canvas 549 537 535 331 12;
#X text 202 17 attack;
#X text 368 17 release;
#X text 258 17 decay;
#X text 312 17 sustain;
#X obj 75 179 pack 1 f;
#X obj 195 179 pack f f;
#X obj 195 225 line~ 0;
#X obj 195 123 del;
#X obj 295 179 pack 0 f;
#X obj 43 18 inlet;
#X obj 198 43 inlet;
#X obj 248 43 inlet;
#X obj 298 43 inlet;
#X obj 348 43 inlet;
#X obj 195 249 outlet~;
#X obj 66 84 t f b;
#X msg 111 85 stop;
#X obj 195 150 f 1;
#X obj 43 45 sel 0;
#X text 84 16 gate in \, float;
#X obj 298 67 *;
#X obj 43 117 t b f;
#X connect 4 0 6 0;
#X connect 5 0 6 0;
#X connect 6 0 14 0;
#X connect 7 0 17 0;
#X connect 8 0 6 0;
#X connect 9 0 18 0;
#X connect 10 0 7 1;
#X connect 10 0 4 1;
#X connect 11 0 5 1;
#X connect 12 0 20 0;
#X connect 13 0 8 1;
#X connect 15 0 8 0;
#X connect 15 1 16 0;
#X connect 16 0 7 0;
#X connect 17 0 5 0;
#X connect 18 0 15 0;
#X connect 18 1 21 0;
#X connect 20 0 17 1;
#X connect 21 0 7 0;
#X connect 21 0 20 0;
#X connect 21 1 4 0;
#X connect 21 1 20 1;
