#N canvas 0 23 545 412 12;
#X obj 47 350 tabwrite window;
#X obj 47 40 until;
#X obj 47 266 expr 0.5 * (1 + cos((6.283186/$f2) * ($f1 - $f2/2)))
;
#X obj 47 197 moses;
#X obj 199 162 / 2;
#X obj 79 234 moses;
#X obj 199 193 expr 1 - $f1;
#X obj 111 313 expr 0.5 * (1 + cos((6.283186/$f2) * ($f1 - 1 + $f2/2)))
;
#X obj 47 148 t f f;
#X msg 68 313 1;
#X msg 47 15 1024;
#X obj 47 173 / 1024;
#X obj 68 288 bang;
#X obj 67 126 + 1;
#X obj 47 98 f;
#X obj 47 64 bang;
#X obj 92 98 % 1024;
#X obj 199 39 inlet;
#X text 196 16 alpha (0 to 1);
#X obj 194 73 t b f f f;
#X connect 1 0 15 0;
#X connect 2 0 0 0;
#X connect 3 0 2 0;
#X connect 3 1 5 0;
#X connect 4 0 3 1;
#X connect 4 0 6 0;
#X connect 5 0 12 0;
#X connect 5 1 7 0;
#X connect 6 0 5 1;
#X connect 7 0 0 0;
#X connect 8 0 11 0;
#X connect 8 1 0 1;
#X connect 9 0 0 0;
#X connect 10 0 1 0;
#X connect 11 0 3 0;
#X connect 12 0 9 0;
#X connect 13 0 16 0;
#X connect 14 0 13 0;
#X connect 14 0 8 0;
#X connect 15 0 14 0;
#X connect 16 0 14 1;
#X connect 17 0 19 0;
#X connect 19 0 10 0;
#X connect 19 1 4 0;
#X connect 19 2 2 1;
#X connect 19 3 7 1;
