#N canvas 762 424 918 604 12;
#X obj 110 524 outlet~;
#X obj 110 39 inlet;
#X text 107 11 midi note #;
#X obj 110 439 *~;
#X obj 205 266 +;
#X obj 225 240 *;
#X text 266 9 w-idx adsr;
#X text 544 9 amp adsr;
#X obj 275 295 sig~;
#X obj 177 240 t b f;
#X obj 284 420 expr~ 0.5 * ($v1 + 1) * $f2;
#X obj 275 319 lop~ 500;
#X obj 29 138 r ofst;
#X obj 264 210 r envdpth;
#X obj 240 33 r w-idx-adsr;
#X obj 240 57 unpack f f f f;
#X obj 540 57 unpack f f f f;
#X obj 540 33 r amp-adsr;
#X obj 355 395 r lfo-f;
#X obj 465 396 r lfo-d;
#X obj 278 359 s~ w-env;
#X obj 286 451 s~ w-lfo;
#X obj 225 210 *;
#X obj 16 40 inlet;
#X obj 180 524 outlet~;
#X obj 640 356 loadbang;
#X obj 313 286 expr if($f1 < 1 \, $f1 \, $f1 - int($f1));
#X obj 79 138 r vc-ofst;
#X obj 79 162 t b f;
#X obj 284 395 osc~ 0.67;
#X obj 652 33 r amp-slow;
#X obj 653 113 t b f;
#X floatatom 664 230 5 0 0 0 - - -;
#X obj 372 117 t b f;
#X obj 372 33 r w-idx-slow;
#X obj 652 57 expr 1 + $f1 * $f1 * 5;
#X obj 611 134 * 1;
#X obj 571 134 * 1;
#X obj 540 134 * 1;
#X obj 331 134 * 1;
#X obj 271 134 * 1;
#X obj 240 134 * 1;
#X obj 372 57 expr 1 + $f1 * $f1 * 5;
#X obj 129 162 r w-ofst-mod;
#X obj 30 217 expr $f1 + $f2 * \$1 + $f3;
#X obj 129 186 t b f;
#X floatatom 156 70 5 0 0 0 - - -;
#X obj 225 166 vudu.f-adsr;
#X obj 524 166 vudu.f-adsr~;
#X obj 44 69 f;
#X obj 391 313 r w-idx-slew;
#X floatatom 426 371 5 0 0 0 - - -;
#X obj 390 361 mtof;
#X obj 390 337 expr (1 - $f1 - .49) * 142;
#X obj 616 367 bng 15 250 50 0 empty empty empty 17 7 0 10 -262144
-1 -1;
#X obj 615 419 \$1;
#X obj 651 420 \$2;
#X obj 616 387 t b b;
#X obj 615 443 /;
#X obj 615 467 expr $f1 * 2 - 1;
#X obj 110 483 vudu.pan2~;
#X obj 110 385 wavetableSoundOversamp;
#X connect 1 0 61 0;
#X connect 3 0 60 0;
#X connect 4 0 26 0;
#X connect 4 0 8 0;
#X connect 5 0 4 0;
#X connect 8 0 11 0;
#X connect 9 0 4 0;
#X connect 9 1 4 1;
#X connect 10 0 21 0;
#X connect 10 0 61 1;
#X connect 11 0 20 0;
#X connect 11 0 61 1;
#X connect 12 0 44 0;
#X connect 13 0 5 1;
#X connect 14 0 15 0;
#X connect 15 0 41 0;
#X connect 15 1 40 0;
#X connect 15 2 47 3;
#X connect 15 3 39 0;
#X connect 16 0 38 0;
#X connect 16 1 37 0;
#X connect 16 2 48 3;
#X connect 16 3 36 0;
#X connect 17 0 16 0;
#X connect 18 0 29 0;
#X connect 19 0 10 1;
#X connect 22 0 5 0;
#X connect 23 0 49 0;
#X connect 25 0 57 0;
#X connect 27 0 28 0;
#X connect 28 0 44 0;
#X connect 28 1 44 1;
#X connect 29 0 10 0;
#X connect 30 0 35 0;
#X connect 31 0 36 0;
#X connect 31 0 37 0;
#X connect 31 0 38 0;
#X connect 31 1 36 1;
#X connect 31 1 37 1;
#X connect 31 1 38 1;
#X connect 33 0 39 0;
#X connect 33 0 40 0;
#X connect 33 0 41 0;
#X connect 33 1 39 1;
#X connect 33 1 40 1;
#X connect 33 1 41 1;
#X connect 34 0 42 0;
#X connect 35 0 31 0;
#X connect 36 0 32 0;
#X connect 36 0 48 4;
#X connect 37 0 48 2;
#X connect 38 0 48 1;
#X connect 39 0 47 4;
#X connect 40 0 47 2;
#X connect 41 0 47 1;
#X connect 42 0 33 0;
#X connect 43 0 45 0;
#X connect 44 0 9 0;
#X connect 45 0 44 0;
#X connect 45 1 44 2;
#X connect 47 0 22 0;
#X connect 47 0 22 1;
#X connect 48 0 3 1;
#X connect 49 0 47 0;
#X connect 49 0 48 0;
#X connect 50 0 53 0;
#X connect 52 0 51 0;
#X connect 52 0 11 1;
#X connect 53 0 52 0;
#X connect 54 0 57 0;
#X connect 55 0 58 0;
#X connect 56 0 58 1;
#X connect 57 0 55 0;
#X connect 57 1 56 0;
#X connect 58 0 59 0;
#X connect 59 0 60 1;
#X connect 60 0 0 0;
#X connect 60 1 24 0;
#X connect 61 0 3 0;
