#N canvas 521 23 495 396 12;
#X obj 84 162 scaleQuantize;
#X obj 35 91 text define -k scale;
#A set 54.5454 \; 272.727 \; 490.909 \; 709.091 \; 763.636 \; 1036.36
\; 1200 \;;
#X floatatom 84 132 5 0 0 0 - - -;
#X text 21 53 scale should be formatted in terms of cents \, starting
from 2nd scale degree (because 1st is always 0 cents).;
#X obj 84 186 mtof;
#X obj 84 210 t b f;
#X obj 116 242 phasor~ 203.3;
#X obj 116 338 dac~ 1 2;
#N canvas 0 23 450 300 env 0;
#X obj 102 49 t b b;
#X obj 37 134 line~ 0;
#X msg 37 101 1 10;
#X obj 102 77 del 30;
#X msg 107 101 0 300;
#X obj 93 9 inlet;
#X obj 38 159 outlet~;
#X connect 0 0 3 0;
#X connect 0 1 2 0;
#X connect 1 0 6 0;
#X connect 2 0 1 0;
#X connect 3 0 4 0;
#X connect 4 0 1 0;
#X connect 5 0 0 0;
#X restore 65 262 pd env;
#X obj 116 297 expr~ ($v1 - 0.5) * 0.2 * $v2;
#X connect 0 0 4 0;
#X connect 1 1 0 1;
#X connect 2 0 0 0;
#X connect 4 0 5 0;
#X connect 5 0 8 0;
#X connect 5 1 6 0;
#X connect 6 0 9 0;
#X connect 8 0 9 1;
#X connect 9 0 7 0;
#X connect 9 0 7 1;
